<svg width="2795" height="1261" xmlns="http://www.w3.org/2000/svg" xmlns:xlink="http://www.w3.org/1999/xlink" xml:space="preserve" overflow="hidden"><defs><clipPath id="clip0"><path d="M2706.67 1434.38 2709.69 1469.19 2628.27 1476.25 2625.25 1441.44Z" fill-rule="evenodd" clip-rule="evenodd"/></clipPath><clipPath id="clip1"><path d="M2706.67 1434.38 2709.69 1469.19 2628.27 1476.25 2625.25 1441.44Z" fill-rule="evenodd" clip-rule="evenodd"/></clipPath><clipPath id="clip2"><path d="M2702.85 1387.51 2709.93 1469.17 2628.27 1476.25 2621.19 1394.59Z" fill-rule="evenodd" clip-rule="evenodd"/></clipPath></defs><g transform="translate(-665 -802)"><path d="M1799.5 848.008C1799.5 823.979 1818.98 804.5 1843.01 804.5L3413.99 804.5C3438.02 804.5 3457.5 823.979 3457.5 848.008L3457.5 2016.99C3457.5 2041.02 3438.02 2060.5 3413.99 2060.5L1843.01 2060.5C1818.98 2060.5 1799.5 2041.02 1799.5 2016.99Z" stroke="#FFFFFF" stroke-width="4.58333" stroke-miterlimit="8" fill="#E0D6F1" fill-rule="evenodd"/><path d="M1949.5 1183.65C1949.5 1150.98 1975.98 1124.5 2008.65 1124.5L2564.35 1124.5C2597.02 1124.5 2623.5 1150.98 2623.5 1183.65L2623.5 1695.35C2623.5 1728.02 2597.02 1754.5 2564.35 1754.5L2008.65 1754.5C1975.98 1754.5 1949.5 1728.02 1949.5 1695.35Z" stroke="#3E2468" stroke-width="4.58333" stroke-miterlimit="8" fill="#52308B" fill-rule="evenodd"/><text fill="#FFFFFF" font-family="Aptos,Aptos_MSFontService,sans-serif" font-weight="700" font-size="64" transform="matrix(1 0 0 1 2085.38 1421)">Power market </text><text fill="#FFFFFF" font-family="Aptos,Aptos_MSFontService,sans-serif" font-weight="700" font-size="64" transform="matrix(1 0 0 1 2192.74 1498)">model</text><path d="M2706.5 1169.9C2706.5 1144.83 2726.82 1124.5 2751.9 1124.5L3335.1 1124.5C3360.17 1124.5 3380.5 1144.83 3380.5 1169.9L3380.5 1709.1C3380.5 1734.17 3360.17 1754.5 3335.1 1754.5L2751.9 1754.5C2726.82 1754.5 2706.5 1734.17 2706.5 1709.1Z" stroke="#3E2468" stroke-width="4.58333" stroke-miterlimit="8" fill="#52308B" fill-rule="evenodd"/><text fill="#FFFFFF" font-family="Aptos,Aptos_MSFontService,sans-serif" font-weight="700" font-size="64" transform="matrix(1 0 0 1 2875.28 1421)">Gas market </text><text fill="#FFFFFF" font-family="Aptos,Aptos_MSFontService,sans-serif" font-weight="700" font-size="64" transform="matrix(1 0 0 1 2949.95 1498)">model</text><path d="M1949.5 917.833C1949.5 903.842 1960.84 892.5 1974.83 892.5L3355.17 892.5C3369.16 892.5 3380.5 903.842 3380.5 917.833L3380.5 1019.17C3380.5 1033.16 3369.16 1044.5 3355.17 1044.5L1974.83 1044.5C1960.84 1044.5 1949.5 1033.16 1949.5 1019.17Z" stroke="#3E2468" stroke-width="4.58333" stroke-miterlimit="8" fill="#52308B" fill-rule="evenodd"/><text fill="#FFFFFF" font-family="Aptos,Aptos_MSFontService,sans-serif" font-weight="700" font-size="64" transform="matrix(1 0 0 1 2385.01 989)">Asset</text><text fill="#FFFFFF" font-family="Aptos,Aptos_MSFontService,sans-serif" font-weight="700" font-size="64" transform="matrix(1 0 0 1 2549.97 989)">-</text><text fill="#FFFFFF" font-family="Aptos,Aptos_MSFontService,sans-serif" font-weight="700" font-size="64" transform="matrix(1 0 0 1 2571.74 989)">level models</text><path d="M1949.5 1858.83C1949.5 1844.84 1960.84 1833.5 1974.83 1833.5L3355.17 1833.5C3369.16 1833.5 3380.5 1844.84 3380.5 1858.83L3380.5 1960.17C3380.5 1974.16 3369.16 1985.5 3355.17 1985.5L1974.83 1985.5C1960.84 1985.5 1949.5 1974.16 1949.5 1960.17Z" stroke="#3E2468" stroke-width="4.58333" stroke-miterlimit="8" fill="#52308B" fill-rule="evenodd"/><text fill="#FFFFFF" font-family="Aptos,Aptos_MSFontService,sans-serif" font-weight="700" font-size="64" transform="matrix(1 0 0 1 2070.9 1929)">Inputs based on market leading research</text><path d="M1736.5 890.668C1736.5 876.768 1747.77 865.5 1761.67 865.5L1862.33 865.5C1876.23 865.5 1887.5 876.768 1887.5 890.668L1887.5 1966.33C1887.5 1980.23 1876.23 1991.5 1862.33 1991.5L1761.67 1991.5C1747.77 1991.5 1736.5 1980.23 1736.5 1966.33Z" stroke="#3E2468" stroke-width="4.58333" stroke-miterlimit="8" fill="#52308B" fill-rule="evenodd"/><text fill="#FFFFFF" font-family="Aptos,Aptos_MSFontService,sans-serif" font-weight="700" font-size="64" transform="matrix(6.12323e-17 -1 1 6.12323e-17 1831.64 1662)">Scenario engine</text><text font-family="Aptos,Aptos_MSFontService,sans-serif" font-weight="700" font-size="64" transform="matrix(1 0 0 1 743.642 1939)">Downloadable data</text><text font-family="Aptos,Aptos_MSFontService,sans-serif" font-weight="700" font-size="64" transform="matrix(1 0 0 1 704.065 1474)">Results visualisation</text><text font-family="Aptos,Aptos_MSFontService,sans-serif" font-weight="700" font-size="64" transform="matrix(1 0 0 1 884.511 976)">Flexible inputs</text><path d="M1473.5 890.668C1473.5 876.768 1484.77 865.5 1498.67 865.5L1599.33 865.5C1613.23 865.5 1624.5 876.768 1624.5 890.668L1624.5 1966.33C1624.5 1980.23 1613.23 1991.5 1599.33 1991.5L1498.67 1991.5C1484.77 1991.5 1473.5 1980.23 1473.5 1966.33Z" stroke="#3E2468" stroke-width="4.58333" stroke-miterlimit="8" fill="#52308B" fill-rule="evenodd"/><text fill="#FFFFFF" font-family="Aptos,Aptos_MSFontService,sans-serif" font-weight="700" font-size="64" transform="matrix(6.12323e-17 -1 1 6.12323e-17 1569.24 1886)">User</text><text fill="#FFFFFF" font-family="Aptos,Aptos_MSFontService,sans-serif" font-weight="700" font-size="64" transform="matrix(6.12323e-17 -1 1 6.12323e-17 1569.24 1751)">-</text><text fill="#FFFFFF" font-family="Aptos,Aptos_MSFontService,sans-serif" font-weight="700" font-size="64" transform="matrix(6.12323e-17 -1 1 6.12323e-17 1569.24 1729)">friendly web app interface</text><path d="M2605 1438C2605 1407.07 2630.3 1382 2661.5 1382 2692.7 1382 2718 1407.07 2718 1438 2718 1468.93 2692.7 1494 2661.5 1494 2630.3 1494 2605 1468.93 2605 1438Z" fill="#3E2468" fill-rule="evenodd"/><g><g><g><path d="M2661.98 1405.9C2644.9 1405.9 2630.8 1419.39 2629.95 1436.48L2622.35 1428.88C2621.32 1427.94 2619.78 1427.94 2618.76 1428.96 2617.82 1429.9 2617.73 1431.52 2618.67 1432.55L2630.72 1444.59C2630.97 1444.85 2631.23 1445.02 2631.57 1445.1 2631.66 1445.1 2631.74 1445.19 2631.91 1445.19L2632.08 1445.28 2632.34 1445.28 2632.6 1445.28 2632.77 1445.28C2633.36 1445.28 2633.96 1444.93 2634.39 1444.51L2646.43 1432.46C2647.46 1431.44 2647.46 1429.81 2646.43 1428.88 2645.41 1427.85 2643.79 1427.85 2642.85 1428.88L2635.07 1436.65C2635.67 1424.52 2644.3 1414.35 2656.17 1411.71 2668.04 1409.06 2680.17 1414.7 2685.81 1425.46 2691.45 1436.22 2689.23 1449.38 2680.34 1457.66 2679.32 1458.6 2679.23 1460.22 2680.26 1461.25 2681.2 1462.27 2682.82 1462.36 2683.85 1461.42 2693.5 1452.45 2696.66 1438.53 2691.79 1426.23 2687.01 1413.93 2675.13 1405.9 2661.98 1405.9Z" fill="#FFFFFF"/></g></g></g><g clip-path="url(#clip0)"><g clip-path="url(#clip1)"><g clip-path="url(#clip2)"><path d="M46.9602 12.8927C29.8837 12.8927 15.7957 26.3831 14.9419 43.4595L7.34286 35.8605C6.31827 34.9213 4.7814 34.9213 3.75681 35.9459 2.81761 36.8851 2.73223 38.5073 3.67143 39.5319L15.7103 51.5708C15.9665 51.8269 16.2226 51.9977 16.5641 52.0831 16.6495 52.0831 16.7349 52.1685 16.9057 52.1685L17.0764 52.2538 17.3326 52.2538 17.5887 52.2538 17.7595 52.2538C18.3571 52.2538 18.9548 51.9123 19.3817 51.4854L31.4206 39.4465C32.4452 38.4219 32.4452 36.7997 31.4206 35.8605 30.396 34.8359 28.7738 34.8359 27.8346 35.8605L20.0648 43.6302C20.6625 31.506 29.2861 21.3455 41.1542 18.6987 53.0223 16.0518 65.1465 21.6871 70.7818 32.4452 76.417 43.2033 74.197 56.3522 65.3173 64.6342 64.2927 65.5734 64.2073 67.1957 65.2319 68.2203 66.1711 69.2449 67.7934 69.3303 68.818 68.3911 78.4661 59.4259 81.6253 45.5087 76.7585 33.2136 71.9771 20.9186 60.109 12.8927 46.9602 12.8927Z" fill="#FFFFFF" transform="matrix(0.086389 0.996261 -0.996282 0.0863907 2702.85 1387.51)"/></g></g></g><path d="M2310.5 1141C2279.3 1141 2254 1115.7 2254 1084.5 2254 1053.3 2279.3 1028 2310.5 1028 2341.7 1028 2367 1053.3 2367 1084.5 2367 1115.7 2341.7 1141 2310.5 1141Z" fill="#3E2468" fill-rule="evenodd"/><path d="M2306.99 1119.21 2306.99 1057.26 2315.01 1057.26 2315.01 1119.21ZM2285 1082.19 2311 1050.99 2337 1082.19C2338.42 1083.89 2338.19 1086.42 2336.48 1087.84 2334.78 1089.25 2332.25 1089.03 2330.84 1087.32L2307.92 1059.82 2314.08 1059.82 2291.16 1087.32C2289.75 1089.02 2287.22 1089.25 2285.52 1087.84 2283.81 1086.42 2283.58 1083.89 2285 1082.19Z" fill="#FFFFFF"/><path d="M2310.5 1855C2279.3 1855 2254 1829.93 2254 1799 2254 1768.07 2279.3 1743 2310.5 1743 2341.7 1743 2367 1768.07 2367 1799 2367 1829.93 2341.7 1855 2310.5 1855Z" fill="#3E2468" fill-rule="evenodd"/><path d="M2306.99 1833.21 2306.99 1771.26 2315.01 1771.26 2315.01 1833.21ZM2285 1796.19 2311 1764.99 2337 1796.19C2338.42 1797.89 2338.19 1800.42 2336.48 1801.84 2334.78 1803.26 2332.25 1803.03 2330.84 1801.32L2307.92 1773.82 2314.08 1773.82 2291.16 1801.32C2289.75 1803.03 2287.22 1803.25 2285.52 1801.84 2283.81 1800.42 2283.58 1797.89 2285 1796.19Z" fill="#FFFFFF"/><path d="M3037 1855C3006.07 1855 2981 1829.93 2981 1799 2981 1768.07 3006.07 1743 3037 1743 3067.93 1743 3093 1768.07 3093 1799 3093 1829.93 3067.93 1855 3037 1855Z" fill="#3E2468" fill-rule="evenodd"/><path d="M3032.99 1833.21 3032.99 1771.26 3041.01 1771.26 3041.01 1833.21ZM3011 1796.19 3037 1764.99 3063 1796.19C3064.42 1797.89 3064.19 1800.42 3062.48 1801.84 3060.78 1803.26 3058.25 1803.03 3056.84 1801.32L3033.92 1773.82 3040.08 1773.82 3017.16 1801.32C3015.75 1803.03 3013.22 1803.25 3011.52 1801.84 3009.81 1800.42 3009.58 1797.89 3011 1796.19Z" fill="#FFFFFF"/><path d="M1735 1518.5C1735 1549.7 1709.93 1575 1679 1575 1648.07 1575 1623 1549.7 1623 1518.5 1623 1487.3 1648.07 1462 1679 1462 1709.93 1462 1735 1487.3 1735 1518.5Z" fill="#3E2468" fill-rule="evenodd"/><path d="M1713.21 1522.01 1651.26 1522.01 1651.26 1513.99 1713.21 1513.99ZM1676.19 1544 1644.99 1518 1676.19 1492C1677.89 1490.58 1680.42 1490.81 1681.84 1492.52 1683.26 1494.22 1683.03 1496.75 1681.32 1498.16L1653.82 1521.08 1653.82 1514.92 1681.32 1537.84C1683.02 1539.25 1683.25 1541.78 1681.84 1543.48 1680.42 1545.19 1677.89 1545.42 1676.19 1544Z" fill="#FFFFFF"/><path d="M1623 1140.5C1623 1109.3 1648.07 1084 1679 1084 1709.93 1084 1735 1109.3 1735 1140.5 1735 1171.7 1709.93 1197 1679 1197 1648.07 1197 1623 1171.7 1623 1140.5Z" fill="#3E2468" fill-rule="evenodd"/><path d="M1645 1136.99 1706.95 1136.99 1706.95 1145.01 1645 1145.01ZM1682.02 1115 1713.22 1141 1682.02 1167C1680.32 1168.42 1677.79 1168.19 1676.37 1166.48 1674.95 1164.78 1675.18 1162.25 1676.88 1160.84L1704.38 1137.92 1704.38 1144.08 1676.88 1121.16C1675.18 1119.75 1674.95 1117.22 1676.37 1115.52 1677.79 1113.81 1680.32 1113.58 1682.02 1115Z" fill="#FFFFFF"/><path d="M1360 956C1360 925.072 1385.07 900 1416 900 1446.93 900 1472 925.072 1472 956 1472 986.928 1446.93 1012 1416 1012 1385.07 1012 1360 986.928 1360 956Z" fill="#3E2468" fill-rule="evenodd"/><path d="M1382 951.99 1443.95 951.99 1443.95 960.011 1382 960.01ZM1419.02 930.003 1450.22 956 1419.02 981.998C1417.32 983.416 1414.79 983.186 1413.37 981.484 1411.95 979.783 1412.18 977.254 1413.88 975.836L1441.38 952.919 1441.38 959.081 1413.88 936.164C1412.18 934.746 1411.95 932.218 1413.37 930.516 1414.79 928.815 1417.32 928.585 1419.02 930.003Z" fill="#FFFFFF"/><path d="M1472 1454.5C1472 1485.7 1446.93 1511 1416 1511 1385.07 1511 1360 1485.7 1360 1454.5 1360 1423.3 1385.07 1398 1416 1398 1446.93 1398 1472 1423.3 1472 1454.5Z" fill="#3E2468" fill-rule="evenodd"/><path d="M1450.21 1459.01 1388.26 1459.01 1388.26 1450.99 1450.21 1450.99ZM1413.19 1481 1381.99 1455 1413.19 1429C1414.89 1427.58 1417.42 1427.81 1418.84 1429.52 1420.26 1431.22 1420.03 1433.75 1418.32 1435.16L1390.82 1458.08 1390.82 1451.92 1418.32 1474.84C1420.02 1476.25 1420.25 1478.78 1418.84 1480.48 1417.42 1482.19 1414.89 1482.42 1413.19 1481Z" fill="#FFFFFF"/><path d="M1472 1921C1472 1951.93 1446.93 1977 1416 1977 1385.07 1977 1360 1951.93 1360 1921 1360 1890.07 1385.07 1865 1416 1865 1446.93 1865 1472 1890.07 1472 1921Z" fill="#3E2468" fill-rule="evenodd"/><path d="M1450.21 1925.01 1388.26 1925.01 1388.26 1916.99 1450.21 1916.99ZM1413.19 1947 1381.99 1921 1413.19 1895C1414.89 1893.58 1417.42 1893.81 1418.84 1895.52 1420.26 1897.22 1420.03 1899.75 1418.32 1901.16L1390.82 1924.08 1390.82 1917.92 1418.32 1940.84C1420.02 1942.25 1420.25 1944.78 1418.84 1946.48 1417.42 1948.19 1414.89 1948.42 1413.19 1947Z" fill="#FFFFFF"/><path d="M3037 1141C3006.07 1141 2981 1115.7 2981 1084.5 2981 1053.3 3006.07 1028 3037 1028 3067.93 1028 3093 1053.3 3093 1084.5 3093 1115.7 3067.93 1141 3037 1141Z" fill="#3E2468" fill-rule="evenodd"/><path d="M3032.99 1119.21 3032.99 1057.26 3041.01 1057.26 3041.01 1119.21ZM3011 1082.19 3037 1050.99 3063 1082.19C3064.42 1083.89 3064.19 1086.42 3062.48 1087.84 3060.78 1089.25 3058.25 1089.03 3056.84 1087.32L3033.92 1059.82 3040.08 1059.82 3017.16 1087.32C3015.75 1089.02 3013.22 1089.25 3011.52 1087.84 3009.81 1086.42 3009.58 1083.89 3011 1082.19Z" fill="#FFFFFF"/></g></svg>